<mxfile host="65bd71144e">
    <diagram id="lalNwXN8pspYNgGbJzUz" name="Página-1">
        <mxGraphModel dx="1755" dy="1644" grid="1" gridSize="10" guides="1" tooltips="1" connect="1" arrows="1" fold="1" page="1" pageScale="1" pageWidth="827" pageHeight="1169" math="0" shadow="0">
            <root>
                <mxCell id="0"/>
                <mxCell id="1" parent="0"/>
                <mxCell id="2" value="CLINICA ODONTOLOGICA" style="swimlane;startSize=50;horizontal=1;containerType=tree;newEdgeStyle={&quot;edgeStyle&quot;:&quot;elbowEdgeStyle&quot;,&quot;startArrow&quot;:&quot;none&quot;,&quot;endArrow&quot;:&quot;none&quot;};" vertex="1" parent="1">
                    <mxGeometry x="-30" y="-410" width="930" height="1355" as="geometry">
                        <mxRectangle x="-20" y="-410" width="190" height="30" as="alternateBounds"/>
                    </mxGeometry>
                </mxCell>
                <UserObject label="&amp;nbsp; A[🏥 Entrada do Paciente]&amp;nbsp;" treeRoot="1" id="5">
                    <mxCell style="whiteSpace=wrap;html=1;align=center;treeFolding=1;treeMoving=1;newEdgeStyle={&quot;edgeStyle&quot;:&quot;elbowEdgeStyle&quot;,&quot;startArrow&quot;:&quot;none&quot;,&quot;endArrow&quot;:&quot;none&quot;};" vertex="1" parent="2">
                        <mxGeometry x="140" y="60" width="120" height="60" as="geometry"/>
                    </mxCell>
                </UserObject>
                <mxCell id="18" value="" style="edgeStyle=orthogonalEdgeStyle;sourcePerimeterSpacing=0;targetPerimeterSpacing=0;startArrow=none;endArrow=none;rounded=0;targetPortConstraint=eastwest;sourcePortConstraint=northsouth;curved=0;rounded=0;" edge="1" target="20" parent="2">
                    <mxGeometry relative="1" as="geometry">
                        <mxPoint x="201" y="120" as="sourcePoint"/>
                        <Array as="points">
                            <mxPoint x="201" y="121"/>
                            <mxPoint x="200" y="121"/>
                            <mxPoint x="200" y="150"/>
                        </Array>
                    </mxGeometry>
                </mxCell>
                <mxCell id="19" value="" style="edgeStyle=orthogonalEdgeStyle;sourcePerimeterSpacing=0;targetPerimeterSpacing=0;startArrow=none;endArrow=none;rounded=0;targetPortConstraint=eastwest;sourcePortConstraint=northsouth;curved=0;rounded=0;" edge="1" target="21" parent="2">
                    <mxGeometry relative="1" as="geometry">
                        <mxPoint x="200" y="150" as="sourcePoint"/>
                    </mxGeometry>
                </mxCell>
                <mxCell id="20" value="B(📝 Cadastro / Check-in);" style="whiteSpace=wrap;html=1;align=center;verticalAlign=middle;treeFolding=1;treeMoving=1;" vertex="1" parent="2">
                    <mxGeometry x="20" y="120" width="100" height="60" as="geometry"/>
                </mxCell>
                <mxCell id="40" value="" style="edgeStyle=none;html=1;" edge="1" parent="2" source="21" target="39">
                    <mxGeometry relative="1" as="geometry"/>
                </mxCell>
                <mxCell id="21" value="B --&amp;gt; C{📅 Consulta Marcada?};" style="whiteSpace=wrap;html=1;align=center;verticalAlign=middle;treeFolding=1;treeMoving=1;" vertex="1" parent="2">
                    <mxGeometry x="300" y="120" width="100" height="60" as="geometry"/>
                </mxCell>
                <mxCell id="59" style="edgeStyle=none;html=1;" edge="1" parent="2" source="39">
                    <mxGeometry relative="1" as="geometry">
                        <mxPoint x="449.9999999999999" y="250.0000000000001" as="targetPoint"/>
                    </mxGeometry>
                </mxCell>
                <mxCell id="62" style="edgeStyle=none;html=1;exitX=0;exitY=0.5;exitDx=0;exitDy=0;" edge="1" parent="2" source="39">
                    <mxGeometry relative="1" as="geometry">
                        <mxPoint x="240" y="249.83333333333337" as="targetPoint"/>
                    </mxGeometry>
                </mxCell>
                <mxCell id="39" value="SIM OU NÃO" style="rhombus;whiteSpace=wrap;html=1;" vertex="1" parent="2">
                    <mxGeometry x="290" y="210" width="120" height="80" as="geometry"/>
                </mxCell>
                <mxCell id="61" style="edgeStyle=none;html=1;" edge="1" parent="2" source="60">
                    <mxGeometry relative="1" as="geometry">
                        <mxPoint x="470" y="325" as="targetPoint"/>
                    </mxGeometry>
                </mxCell>
                <mxCell id="60" value="C: SIM" style="rounded=1;whiteSpace=wrap;html=1;" vertex="1" parent="2">
                    <mxGeometry x="440" y="230" width="60" height="40" as="geometry"/>
                </mxCell>
                <mxCell id="65" style="edgeStyle=none;html=1;" edge="1" parent="2" source="64">
                    <mxGeometry relative="1" as="geometry">
                        <mxPoint x="230" y="325" as="targetPoint"/>
                    </mxGeometry>
                </mxCell>
                <mxCell id="64" value="c:NÃO" style="rounded=1;whiteSpace=wrap;html=1;" vertex="1" parent="2">
                    <mxGeometry x="200" y="230" width="60" height="40" as="geometry"/>
                </mxCell>
                <mxCell id="69" style="edgeStyle=none;html=1;entryX=0.5;entryY=0;entryDx=0;entryDy=0;" edge="1" parent="2" source="67" target="70">
                    <mxGeometry relative="1" as="geometry">
                        <mxPoint x="230" y="425" as="targetPoint"/>
                    </mxGeometry>
                </mxCell>
                <mxCell id="67" value="📋 Agendamento/ Encaixe" style="rounded=1;whiteSpace=wrap;html=1;" vertex="1" parent="2">
                    <mxGeometry x="170" y="325" width="120" height="60" as="geometry"/>
                </mxCell>
                <mxCell id="68" value="⏳ Sala de Espera" style="rounded=1;whiteSpace=wrap;html=1;" vertex="1" parent="2">
                    <mxGeometry x="410" y="325" width="120" height="60" as="geometry"/>
                </mxCell>
                <mxCell id="71" style="edgeStyle=none;html=1;entryX=0.5;entryY=0;entryDx=0;entryDy=0;" edge="1" parent="2" source="70" target="72">
                    <mxGeometry relative="1" as="geometry">
                        <mxPoint x="230" y="565" as="targetPoint"/>
                    </mxGeometry>
                </mxCell>
                <mxCell id="70" value="👨‍⚕️ Consulta Odontológica" style="rounded=1;whiteSpace=wrap;html=1;" vertex="1" parent="2">
                    <mxGeometry x="170" y="430" width="120" height="60" as="geometry"/>
                </mxCell>
                <mxCell id="73" style="edgeStyle=none;html=1;entryX=0.5;entryY=0;entryDx=0;entryDy=0;" edge="1" parent="2" source="72" target="74">
                    <mxGeometry relative="1" as="geometry">
                        <mxPoint x="230" y="685" as="targetPoint"/>
                    </mxGeometry>
                </mxCell>
                <mxCell id="72" value="⚙️ Tratamento" style="rounded=1;whiteSpace=wrap;html=1;" vertex="1" parent="2">
                    <mxGeometry x="170" y="530" width="120" height="60" as="geometry"/>
                </mxCell>
                <mxCell id="75" style="edgeStyle=none;html=1;entryX=0.5;entryY=0;entryDx=0;entryDy=0;" edge="1" parent="2" source="74" target="76">
                    <mxGeometry relative="1" as="geometry">
                        <mxPoint x="230" y="805" as="targetPoint"/>
                    </mxGeometry>
                </mxCell>
                <mxCell id="74" value="📌 Encaminhamento / Retorno" style="rounded=1;whiteSpace=wrap;html=1;" vertex="1" parent="2">
                    <mxGeometry x="170" y="630" width="120" height="65" as="geometry"/>
                </mxCell>
                <mxCell id="77" style="edgeStyle=none;html=1;" edge="1" parent="2" source="76">
                    <mxGeometry relative="1" as="geometry">
                        <mxPoint x="230" y="840" as="targetPoint"/>
                    </mxGeometry>
                </mxCell>
                <mxCell id="76" value="💼 Recepção / Administração" style="rounded=1;whiteSpace=wrap;html=1;" vertex="1" parent="2">
                    <mxGeometry x="170" y="740" width="120" height="60" as="geometry"/>
                </mxCell>
                <mxCell id="79" style="edgeStyle=none;html=1;" edge="1" parent="2" source="78">
                    <mxGeometry relative="1" as="geometry">
                        <mxPoint x="230" y="930" as="targetPoint"/>
                    </mxGeometry>
                </mxCell>
                <mxCell id="78" value="💳 Pagamento" style="rounded=1;whiteSpace=wrap;html=1;" vertex="1" parent="2">
                    <mxGeometry x="170" y="840" width="120" height="60" as="geometry"/>
                </mxCell>
                <mxCell id="80" value="🚪 Saída do Paciente" style="rounded=1;whiteSpace=wrap;html=1;" vertex="1" parent="2">
                    <mxGeometry x="170" y="930" width="120" height="60" as="geometry"/>
                </mxCell>
            </root>
        </mxGraphModel>
    </diagram>
</mxfile>